<?xml version="1.0" encoding="utf-8"?>
<!-- Generator: Adobe Illustrator 21.0.2, SVG Export Plug-In . SVG Version: 6.00 Build 0)  -->
<svg version="1.1" id="Слой_1" xmlns="http://www.w3.org/2000/svg" xmlns:xlink="http://www.w3.org/1999/xlink" x="0px" y="0px"
	 viewBox="0 0 337 163.2" style="enable-background:new 0 0 337 163.2;" xml:space="preserve">
<style type="text/css">
	.st0{fill:#FFFFFF;}
</style>
<path class="st0" d="M130.1,81.2v22.5c-8,1.9-16.3,3.6-24.5,5.1c-9.1,1.6-18.2,3-27.2,4.2V81.3c0-0.3-0.2-0.5-0.5-0.5h-4.3
	c-0.3,0-0.5,0.2-0.5,0.5v34.5c0,0.2,0.1,0.3,0.2,0.4l2.4,2.4c0.1,0.1,0.3,0.2,0.4,0.2c9.9-1.2,20.4-2.8,30.5-4.6
	c7.9-1.5,15.9-3.1,23.6-4.9v6.3c0,0.3,0.2,0.5,0.5,0.5h4.7c0.3,0,0.5-0.2,0.5-0.5V81.3c0-0.3-0.2-0.5-0.5-0.5h-4.7
	C130.3,80.7,130.1,80.9,130.1,81.2z"/>
<path class="st0" d="M65.4,114.4c-0.8,0.1-1.7,0.2-2.5,0.2V81.2c0-0.3-0.2-0.5-0.5-0.5h-4.9c-0.3,0-0.5,0.2-0.5,0.5v33.9
	c-18.8,1.5-36.5,1.7-51.6,0.5V81.2c0-0.3-0.2-0.5-0.5-0.5H0.5c-0.3,0-0.5,0.2-0.5,0.5v36.6c0,0.1,0.1,0.3,0.2,0.4l2.2,2.4
	c0.1,0.1,0.2,0.2,0.3,0.2c16.7,1.5,36.5,1.4,57.6-0.4l-2.1,2.8c-0.2,0.2-0.1,0.5,0.1,0.7l3.4,2.6c0.2,0.2,0.5,0.1,0.7-0.1l5.6-7.3
	c0.1-0.2,0.2-0.4,0.1-0.6l-2-3.7C65.8,114.5,65.6,114.4,65.4,114.4z"/>
<path class="st0" d="M204.6,78.5c-14.7,7.2-32.9,13.9-53,19.6V81.2c0-0.3-0.2-0.5-0.5-0.5h-4.7c-0.3,0-0.5,0.2-0.5,0.5v34.1
	c0,0.3,0.2,0.5,0.5,0.5h4.7c0.3,0,0.5-0.2,0.5-0.5v-11.7c19.3-5.4,37.1-11.9,51.8-18.7v30.4c0,0.3,0.2,0.5,0.5,0.5h4.3
	c0.3,0,0.5-0.2,0.5-0.5V81c0-0.2-0.1-0.4-0.3-0.4l-3.4-2.1C204.9,78.4,204.8,78.4,204.6,78.5z"/>
<path class="st0" d="M232.1,74.9c0.3-6.1,5.3-11,11.3-11.3l93.2-4c0.5-0.1,0.5-0.7,0-0.8l-93.4-4c-6.1-0.3-11-5.1-11.3-11.2
	l-3.7-43.3c-0.1-0.5-0.7-0.5-0.8,0l-3.8,43.9c-0.4,5.9-5,10.7-10.9,11.1l-27.1,3.4c-0.5,0.1-0.5,0.7,0,0.8l26.8,3.4
	c6,0.5,10.7,5.3,11,11.3l3.9,87.1c0.1,0.5,0.7,0.5,0.8,0L232.1,74.9z"/>
<path class="st0" d="M8.4,142.6v-8.5c0-0.4-0.2-0.6-0.6-0.6H6.9c-0.4,0-0.6,0.2-0.6,0.6v8.1H2v-8.1c0-0.4-0.2-0.6-0.6-0.6H0.6
	c-0.4,0-0.6,0.2-0.6,0.6v9.5c0,0.4,0.2,0.6,0.6,0.6H7l1.2,1.3c0.1,0.1,0.3,0.2,0.4,0.2c0.2,0,0.3-0.1,0.4-0.2l0.7-0.6
	c0.1-0.1,0.2-0.3,0.2-0.4c0-0.2-0.1-0.3-0.2-0.4L8.4,142.6z"/>
<path class="st0" d="M19.3,142.2h-5.7v-2.4h4.3c0.3,0,0.6-0.2,0.6-0.6v-0.8c0-0.4-0.2-0.6-0.6-0.6h-4.3v-2.3h5.6
	c0.3,0,0.6-0.2,0.6-0.6v-0.8c0-0.4-0.2-0.6-0.6-0.6h-7.1c-0.4,0-0.6,0.2-0.6,0.6v9.5c0,0.4,0.2,0.6,0.6,0.6h7.3
	c0.3,0,0.6-0.2,0.6-0.6v-0.8C19.9,142.4,19.7,142.2,19.3,142.2z"/>
<path class="st0" d="M30.2,133.6h-0.9c-0.4,0-0.6,0.2-0.6,0.6v3.7h-4.5v-3.7c0-0.4-0.2-0.6-0.6-0.6h-0.9c-0.4,0-0.6,0.2-0.6,0.6v9.5
	c0,0.4,0.2,0.6,0.6,0.6h0.9c0.4,0,0.6-0.2,0.6-0.6v-3.8h4.5v3.8c0,0.3,0.2,0.6,0.6,0.6h0.9c0.4,0,0.6-0.2,0.6-0.6v-9.5
	C30.7,133.8,30.5,133.6,30.2,133.6z"/>
<path class="st0" d="M40.6,133.6H33c-0.4,0-0.6,0.2-0.6,0.6v0.8c0,0.4,0.2,0.6,0.6,0.6h2.7v8.1c0,0.4,0.2,0.6,0.6,0.6h0.9
	c0.4,0,0.6-0.2,0.6-0.6v-8.1h2.8c0.4,0,0.6-0.2,0.6-0.6v-0.8C41.1,133.8,40.9,133.6,40.6,133.6z"/>
<path class="st0" d="M48.6,133.6h-5.2c-0.4,0-0.6,0.2-0.6,0.6v9.5c0,0.4,0.2,0.6,0.6,0.6h0.9c0.4,0,0.6-0.2,0.6-0.6v-2.5h3.7
	c1.9,0,2.9-1,2.9-2.8v-1.8C51.5,134.5,50.4,133.6,48.6,133.6z M44.9,135.5h3.7c0.6,0,0.8,0.3,0.8,0.8v1.8c0,0.6-0.3,0.8-0.8,0.8
	h-3.7V135.5z"/>
<path class="st0" d="M66.1,133.6H65c-0.3,0-0.6,0.1-0.7,0.4l-4.5,6.8v-6.6c0-0.4-0.2-0.6-0.6-0.6h-0.9c-0.4,0-0.6,0.2-0.6,0.6v9.5
	c0,0.4,0.2,0.6,0.6,0.6h1.1c0.3,0,0.6-0.1,0.7-0.4l4.5-6.8v6.6c0,0.4,0.2,0.6,0.6,0.6h0.9c0.4,0,0.6-0.2,0.6-0.6v-9.5
	C66.7,133.8,66.5,133.6,66.1,133.6z"/>
<path class="st0" d="M75.7,133.4h-3.3c-1.9,0-2.9,1-2.9,2.8v5.3c0,1.8,1.1,2.8,2.9,2.8h3.3c1.9,0,2.9-1,2.9-2.8v-0.6
	c0-0.4-0.2-0.6-0.6-0.6H77c-0.4,0-0.6,0.2-0.6,0.6v0.6c0,0.6-0.3,0.8-0.8,0.8h-3.3c-0.6,0-0.8-0.3-0.8-0.8v-5.3
	c0-0.6,0.3-0.8,0.8-0.8h3.3c0.6,0,0.8,0.3,0.8,0.8v0.6c0,0.4,0.2,0.6,0.6,0.6H78c0.4,0,0.6-0.2,0.6-0.6v-0.6
	C78.6,134.4,77.6,133.4,75.7,133.4z"/>
<path class="st0" d="M87.1,138.6l2.4-4.3c0.1-0.3,0.1-0.4,0-0.5c-0.1-0.1-0.2-0.2-0.5-0.2h-1c-0.4,0-0.6,0.2-0.7,0.4l-2,3.7h-2.1
	v-3.5c0-0.4-0.2-0.6-0.6-0.6h-0.9c-0.4,0-0.6,0.2-0.6,0.6v9.5c0,0.4,0.2,0.6,0.6,0.6h0.9c0.4,0,0.6-0.2,0.6-0.6v-3.9h2.2l2.2,4.1
	c0.1,0.2,0.3,0.4,0.7,0.4h1c0.3,0,0.4-0.2,0.5-0.2c0.1-0.1,0.1-0.3,0-0.5L87.1,138.6z"/>
<path class="st0" d="M99.3,133.6h-1c-0.3,0-0.6,0.2-0.7,0.4l-2.4,5.3l-2.5-5.3c-0.1-0.2-0.3-0.4-0.7-0.4h-1c-0.3,0-0.4,0.2-0.5,0.2
	c-0.1,0.1-0.1,0.3,0,0.5l3.6,7.3c-0.3,0.6-0.6,0.8-1,0.8h-0.4c-0.4,0-0.6,0.2-0.6,0.6v0.8c0,0.3,0.3,0.6,0.6,0.6h0.4
	c1.8,0,2.6-1.5,3.2-2.6l3.4-7.5c0.1-0.3,0-0.4-0.1-0.5C99.7,133.7,99.5,133.6,99.3,133.6z"/>
<path class="st0" d="M107.2,133.4H104c-1.9,0-2.9,1-2.9,2.8v5.3c0,1.8,1.1,2.8,2.9,2.8h3.3c1.9,0,2.9-1,2.9-2.8v-0.6
	c0-0.4-0.2-0.6-0.6-0.6h-0.9c-0.4,0-0.6,0.2-0.6,0.6v0.6c0,0.6-0.3,0.8-0.8,0.8h-3.3c-0.6,0-0.8-0.3-0.8-0.8v-5.3
	c0-0.6,0.3-0.8,0.8-0.8h3.3c0.6,0,0.8,0.3,0.8,0.8v0.6c0,0.4,0.2,0.6,0.6,0.6h0.9c0.4,0,0.6-0.2,0.6-0.6v-0.6
	C110.2,134.4,109.1,133.4,107.2,133.4z"/>
<path class="st0" d="M118.7,133.4h-3.3c-1.9,0-2.9,1-2.9,2.8v5.3c0,1.8,1.1,2.8,2.9,2.8h3.3c1.9,0,2.9-1,2.9-2.8v-0.6
	c0-0.4-0.2-0.6-0.6-0.6h-0.9c-0.4,0-0.6,0.2-0.6,0.6v0.6c0,0.6-0.3,0.8-0.8,0.8h-3.3c-0.6,0-0.8-0.3-0.8-0.8v-5.3
	c0-0.6,0.3-0.8,0.8-0.8h3.3c0.6,0,0.8,0.3,0.8,0.8v0.6c0,0.4,0.2,0.6,0.6,0.6h0.9c0.4,0,0.6-0.2,0.6-0.6v-0.6
	C121.6,134.4,120.6,133.4,118.7,133.4z"/>
<path class="st0" d="M131.1,133.6h-7.6c-0.4,0-0.6,0.2-0.6,0.6v0.8c0,0.4,0.2,0.6,0.6,0.6h2.8v8.1c0,0.4,0.2,0.6,0.6,0.6h0.9
	c0.4,0,0.6-0.2,0.6-0.6v-8.1h2.8c0.4,0,0.6-0.2,0.6-0.6v-0.8C131.7,133.8,131.4,133.6,131.1,133.6z"/>
<path class="st0" d="M140.8,138.3c0.4-0.3,0.7-0.8,0.7-1.7v-0.3c0-1.8-1.1-2.8-2.9-2.8h-4.6c-0.3,0-0.6,0.2-0.6,0.6v9.5
	c0,0.4,0.2,0.6,0.6,0.6h5.2c1.9,0,2.9-1,2.9-2.8v-1C142,139.3,141.4,138.6,140.8,138.3z M139.4,136.7c0,0.6-0.3,0.8-0.8,0.8h-3.1v-2
	h3.1c0.6,0,0.8,0.3,0.8,0.8V136.7z M135.4,139.5h3.7c0.6,0,0.8,0.3,0.8,0.8v1c0,0.6-0.3,0.8-0.8,0.8h-3.7V139.5z"/>
<path class="st0" d="M152.4,142.2h-5.7v-2.4h4.3c0.3,0,0.6-0.2,0.6-0.6v-0.8c0-0.4-0.2-0.6-0.6-0.6h-4.3v-2.3h5.6
	c0.3,0,0.6-0.2,0.6-0.6v-0.8c0-0.4-0.2-0.6-0.6-0.6h-7.1c-0.4,0-0.6,0.2-0.6,0.6v9.5c0,0.4,0.2,0.6,0.6,0.6h7.2
	c0.3,0,0.6-0.2,0.6-0.6v-0.8C152.9,142.4,152.7,142.2,152.4,142.2z"/>
<path class="st0" d="M163.1,133.6h-0.9c-0.4,0-0.6,0.2-0.6,0.6v3.7h-4.5v-3.7c0-0.4-0.2-0.6-0.6-0.6h-0.9c-0.4,0-0.6,0.2-0.6,0.6
	v9.5c0,0.4,0.2,0.6,0.6,0.6h0.9c0.4,0,0.6-0.2,0.6-0.6v-3.8h4.5v3.8c0,0.3,0.2,0.6,0.6,0.6h0.9c0.4,0,0.6-0.2,0.6-0.6v-9.5
	C163.7,133.8,163.5,133.6,163.1,133.6z"/>
<path class="st0" d="M174.8,133.6h-0.9c-0.4,0-0.6,0.2-0.6,0.6v3.7h-4.5v-3.7c0-0.4-0.2-0.6-0.6-0.6h-0.9c-0.4,0-0.6,0.2-0.6,0.6
	v9.5c0,0.4,0.2,0.6,0.6,0.6h0.9c0.4,0,0.6-0.2,0.6-0.6v-3.8h4.5v3.8c0,0.3,0.2,0.6,0.6,0.6h0.9c0.4,0,0.6-0.2,0.6-0.6v-9.5
	C175.3,133.8,175.1,133.6,174.8,133.6z"/>
<path class="st0" d="M184.6,133.4h-3.5c-1.9,0-2.9,1-2.9,2.8v5.3c0,1.8,1.1,2.8,2.9,2.8h3.5c1.9,0,2.9-1,2.9-2.8v-5.3
	C187.5,134.4,186.5,133.4,184.6,133.4z M180.2,136.2c0-0.6,0.3-0.8,0.8-0.8h3.5c0.6,0,0.8,0.3,0.8,0.8v5.3c0,0.6-0.3,0.8-0.8,0.8
	h-3.5c-0.6,0-0.8-0.3-0.8-0.8V136.2z"/>
<path class="st0" d="M197.3,133.6H191c-0.4,0-0.6,0.2-0.6,0.6v9.5c0,0.4,0.2,0.6,0.6,0.6h0.9c0.4,0,0.6-0.2,0.6-0.6v-8.1h4.9
	c0.4,0,0.6-0.2,0.6-0.6v-0.8C197.9,133.8,197.7,133.6,197.3,133.6z"/>
<path class="st0" d="M205.8,133.4h-3.5c-1.9,0-2.9,1-2.9,2.8v5.3c0,1.8,1.1,2.8,2.9,2.8h3.5c1.9,0,2.9-1,2.9-2.8v-5.3
	C208.7,134.4,207.6,133.4,205.8,133.4z M201.4,136.2c0-0.6,0.3-0.8,0.8-0.8h3.5c0.6,0,0.8,0.3,0.8,0.8v5.3c0,0.6-0.3,0.8-0.8,0.8
	h-3.5c-0.6,0-0.8-0.3-0.8-0.8V136.2z"/>
<path class="st0" d="M48.4,151h-1.1c-0.3,0-0.6,0.1-0.7,0.4l-4.5,6.8v-6.6c0-0.4-0.2-0.6-0.6-0.6h-0.9c-0.4,0-0.6,0.2-0.6,0.6v9.5
	c0,0.4,0.2,0.6,0.6,0.6h1.1c0.3,0,0.6-0.1,0.7-0.4l4.5-6.8v6.6c0,0.4,0.2,0.6,0.6,0.6h0.9c0.4,0,0.6-0.2,0.6-0.6v-9.5
	C49,151.3,48.8,151,48.4,151z"/>
<path class="st0" d="M60.1,151h-0.9c-0.4,0-0.6,0.2-0.6,0.6v3.7h-4.5v-3.7c0-0.4-0.2-0.6-0.6-0.6h-0.9c-0.4,0-0.6,0.2-0.6,0.6v9.5
	c0,0.4,0.2,0.6,0.6,0.6h0.9c0.4,0,0.6-0.2,0.6-0.6v-3.8h4.5v3.8c0,0.3,0.2,0.6,0.6,0.6h0.9c0.4,0,0.6-0.2,0.6-0.6v-9.5
	C60.7,151.3,60.4,151,60.1,151z"/>
<path class="st0" d="M70.5,151h-7.6c-0.4,0-0.6,0.2-0.6,0.6v0.8c0,0.4,0.2,0.6,0.6,0.6h2.8v8.1c0,0.4,0.2,0.6,0.6,0.6h0.9
	c0.4,0,0.6-0.2,0.6-0.6V153h2.8c0.4,0,0.6-0.2,0.6-0.6v-0.8C71.1,151.3,70.9,151,70.5,151z"/>
<path class="st0" d="M80.6,159.7h-5.7v-2.4h4.3c0.3,0,0.6-0.2,0.6-0.6v-0.8c0-0.4-0.2-0.6-0.6-0.6h-4.3V153h5.6
	c0.3,0,0.6-0.2,0.6-0.6v-0.8c0-0.4-0.2-0.6-0.6-0.6h-7.1c-0.4,0-0.6,0.2-0.6,0.6v9.5c0,0.4,0.2,0.6,0.6,0.6h7.3
	c0.3,0,0.6-0.2,0.6-0.6v-0.8C81.2,159.9,80.9,159.7,80.6,159.7z"/>
<path class="st0" d="M91.3,151h-5.4c-0.6,0-0.7,0.4-0.7,0.5l-1.6,7.5c-0.2,0.6-0.4,0.8-0.8,0.8h-0.4c-0.4,0-0.6,0.2-0.6,0.6v0.8
	c0,0.3,0.3,0.6,0.6,0.6h0.4c1.6,0,2.4-0.8,2.8-2.6L87,153h2.7v8.1c0,0.4,0.2,0.6,0.6,0.6h0.9c0.4,0,0.6-0.2,0.6-0.6v-9.5
	C91.8,151.3,91.6,151,91.3,151z"/>
<path class="st0" d="M102.7,151h-5.4c-0.6,0-0.7,0.4-0.7,0.5L95,159c-0.2,0.6-0.4,0.8-0.8,0.8h-0.4c-0.4,0-0.6,0.2-0.6,0.6v0.8
	c0,0.3,0.3,0.6,0.6,0.6h0.4c1.6,0,2.4-0.8,2.8-2.6l1.4-6.1h2.7v8.1c0,0.4,0.2,0.6,0.6,0.6h0.9c0.4,0,0.6-0.2,0.6-0.6v-9.5
	C103.3,151.3,103,151,102.7,151z"/>
<path class="st0" d="M114.1,159.7h-5.7v-2.4h4.3c0.3,0,0.6-0.2,0.6-0.6v-0.8c0-0.4-0.2-0.6-0.6-0.6h-4.3V153h5.6
	c0.3,0,0.6-0.2,0.6-0.6v-0.8c0-0.4-0.2-0.6-0.6-0.6h-7.1c-0.4,0-0.6,0.2-0.6,0.6v9.5c0,0.4,0.2,0.6,0.6,0.6h7.3
	c0.3,0,0.6-0.2,0.6-0.6v-0.8C114.6,159.9,114.4,159.7,114.1,159.7z"/>
<path class="st0" d="M122.7,156l2.4-4.3c0.1-0.3,0.1-0.4,0-0.5c-0.1-0.1-0.2-0.2-0.5-0.2h-1c-0.4,0-0.6,0.2-0.7,0.4l-2,3.7h-2.1
	v-3.5c0-0.4-0.2-0.6-0.6-0.6h-0.9c-0.4,0-0.6,0.2-0.6,0.6v9.5c0,0.4,0.2,0.6,0.6,0.6h0.9c0.4,0,0.6-0.2,0.6-0.6v-3.9h2.2l2.2,4.1
	c0.1,0.2,0.3,0.4,0.7,0.4h1c0.3,0,0.4-0.2,0.5-0.2c0.1-0.1,0.1-0.3,0-0.5L122.7,156z"/>
<path class="st0" d="M134.9,152.4v-0.8c0-0.4-0.2-0.6-0.6-0.6h-7.6c-0.4,0-0.6,0.2-0.6,0.6v0.8c0,0.4,0.2,0.6,0.6,0.6h2.8v8.1
	c0,0.4,0.2,0.6,0.6,0.6h0.9c0.4,0,0.6-0.2,0.6-0.6V153h2.8C134.7,153,134.9,152.8,134.9,152.4z"/>
<path class="st0" d="M140,151.4c-0.1-0.2-0.3-0.4-0.7-0.4h-1c-0.4,0-0.6,0.2-0.7,0.4l-3.7,9.5c-0.1,0.3,0,0.4,0.1,0.5
	c0.1,0.1,0.2,0.2,0.4,0.2h1c0.3,0,0.6-0.2,0.7-0.5l0.8-2.1h3.9l0.8,2.1c0.1,0.3,0.4,0.4,0.7,0.4h1c0.3,0,0.4-0.2,0.4-0.2
	c0.1-0.1,0.1-0.3,0.1-0.5L140,151.4z M140,157.1h-2.4l1.2-3.2L140,157.1z"/>
<path class="st0" d="M157.2,151h-7.5c-0.4,0-0.6,0.2-0.6,0.6v9.5c0,0.4,0.2,0.6,0.6,0.6h0.9c0.4,0,0.6-0.2,0.6-0.6V153h4.5v8.1
	c0,0.4,0.2,0.6,0.6,0.6h0.9c0.4,0,0.6-0.2,0.6-0.6v-9.5C157.8,151.3,157.6,151,157.2,151z"/>
<path class="st0" d="M168.6,159.7h-5.7v-2.4h4.3c0.3,0,0.6-0.2,0.6-0.6v-0.8c0-0.4-0.2-0.6-0.6-0.6h-4.3V153h5.6
	c0.3,0,0.6-0.2,0.6-0.6v-0.8c0-0.4-0.2-0.6-0.6-0.6h-7.1c-0.4,0-0.6,0.2-0.6,0.6v9.5c0,0.4,0.2,0.6,0.6,0.6h7.3
	c0.3,0,0.6-0.2,0.6-0.6v-0.8C169.1,159.9,168.9,159.7,168.6,159.7z"/>
<path class="st0" d="M178.1,151h-7.6c-0.4,0-0.6,0.2-0.6,0.6v0.8c0,0.4,0.2,0.6,0.6,0.6h2.8v8.1c0,0.4,0.2,0.6,0.6,0.6h0.9
	c0.4,0,0.6-0.2,0.6-0.6V153h2.8c0.4,0,0.6-0.2,0.6-0.6v-0.8C178.7,151.3,178.5,151,178.1,151z"/>
<path class="st0" d="M186.2,151H181c-0.4,0-0.6,0.2-0.6,0.6v9.5c0,0.4,0.2,0.6,0.6,0.6h0.9c0.4,0,0.6-0.2,0.6-0.6v-2.5h3.7
	c1.9,0,2.9-1,2.9-2.8v-1.8C189,152,188,151,186.2,151z M182.5,153h3.7c0.6,0,0.8,0.3,0.8,0.8v1.8c0,0.6-0.3,0.8-0.8,0.8h-3.7V153z"
	/>
<path class="st0" d="M198.6,151h-6.4c-0.4,0-0.6,0.2-0.6,0.6v9.5c0,0.4,0.2,0.6,0.6,0.6h0.9c0.4,0,0.6-0.2,0.6-0.6V153h4.9
	c0.4,0,0.6-0.2,0.6-0.6v-0.8C199.1,151.3,198.9,151,198.6,151z"/>
<path class="st0" d="M208.6,151.2c-0.1-0.1-0.2-0.2-0.4-0.2h-1c-0.3,0-0.6,0.2-0.7,0.4l-2.4,5.3l-2.5-5.3c-0.1-0.2-0.3-0.4-0.7-0.4
	h-1c-0.3,0-0.4,0.2-0.5,0.2c-0.1,0.1-0.1,0.3,0,0.5l3.6,7.3c-0.3,0.6-0.6,0.8-1,0.8h-0.4c-0.4,0-0.6,0.2-0.6,0.6v0.8
	c0,0.3,0.3,0.6,0.6,0.6h0.4c1.8,0,2.6-1.5,3.2-2.6l3.4-7.5C208.7,151.5,208.6,151.3,208.6,151.2z"/>
</svg>
